<mxfile host="65bd71144e">
    <diagram id="NVJXszb_CYj1ifCJEOEj" name="Page-1">
        <mxGraphModel dx="543" dy="415" grid="1" gridSize="10" guides="1" tooltips="1" connect="1" arrows="1" fold="1" page="1" pageScale="1" pageWidth="850" pageHeight="1100" math="0" shadow="0">
            <root>
                <mxCell id="0"/>
                <mxCell id="1" parent="0"/>
                <mxCell id="29" value="Stop" style="strokeWidth=2;html=1;shape=mxgraph.flowchart.terminator;whiteSpace=wrap;" vertex="1" parent="1">
                    <mxGeometry x="382" y="890" width="100" height="60" as="geometry"/>
                </mxCell>
                <mxCell id="30" style="edgeStyle=none;html=1;" edge="1" parent="1" source="31" target="33">
                    <mxGeometry relative="1" as="geometry"/>
                </mxCell>
                <mxCell id="31" value="Start" style="strokeWidth=2;html=1;shape=mxgraph.flowchart.terminator;whiteSpace=wrap;" vertex="1" parent="1">
                    <mxGeometry x="384" y="10" width="100" height="60" as="geometry"/>
                </mxCell>
                <mxCell id="32" style="edgeStyle=none;html=1;" edge="1" parent="1" source="33" target="36">
                    <mxGeometry relative="1" as="geometry">
                        <mxPoint x="434" y="220" as="targetPoint"/>
                    </mxGeometry>
                </mxCell>
                <mxCell id="33" value="Enter an &lt;br&gt;integer &amp;gt;= 0" style="shape=parallelogram;perimeter=parallelogramPerimeter;whiteSpace=wrap;html=1;fixedSize=1;" vertex="1" parent="1">
                    <mxGeometry x="374" y="110" width="120" height="60" as="geometry"/>
                </mxCell>
                <mxCell id="34" style="edgeStyle=none;html=1;" edge="1" parent="1" source="36">
                    <mxGeometry relative="1" as="geometry">
                        <mxPoint x="330" y="240.00000000000023" as="targetPoint"/>
                    </mxGeometry>
                </mxCell>
                <mxCell id="35" style="edgeStyle=none;html=1;" edge="1" parent="1" source="36">
                    <mxGeometry relative="1" as="geometry">
                        <mxPoint x="434" y="330.0000000000002" as="targetPoint"/>
                    </mxGeometry>
                </mxCell>
                <mxCell id="36" value="try" style="rhombus;whiteSpace=wrap;html=1;" vertex="1" parent="1">
                    <mxGeometry x="394" y="200" width="80" height="80" as="geometry"/>
                </mxCell>
                <mxCell id="37" value="Execption" style="text;html=1;align=center;verticalAlign=middle;resizable=0;points=[];autosize=1;strokeColor=none;fillColor=none;" vertex="1" parent="1">
                    <mxGeometry x="340" y="210" width="70" height="20" as="geometry"/>
                </mxCell>
                <mxCell id="38" style="edgeStyle=elbowEdgeStyle;rounded=0;html=1;entryX=0;entryY=0.5;entryDx=0;entryDy=0;entryPerimeter=0;exitX=0;exitY=0.25;exitDx=0;exitDy=0;" edge="1" parent="1" source="39" target="29">
                    <mxGeometry relative="1" as="geometry">
                        <Array as="points">
                            <mxPoint x="200" y="800"/>
                            <mxPoint x="210" y="540"/>
                            <mxPoint x="250" y="580"/>
                        </Array>
                    </mxGeometry>
                </mxCell>
                <mxCell id="39" value="invalid input&amp;nbsp;" style="shape=parallelogram;perimeter=parallelogramPerimeter;whiteSpace=wrap;html=1;fixedSize=1;" vertex="1" parent="1">
                    <mxGeometry x="220" y="210" width="120" height="60" as="geometry"/>
                </mxCell>
                <mxCell id="40" value="yes" style="text;html=1;align=center;verticalAlign=middle;resizable=0;points=[];autosize=1;strokeColor=none;fillColor=none;" vertex="1" parent="1">
                    <mxGeometry x="444" y="280" width="30" height="20" as="geometry"/>
                </mxCell>
                <mxCell id="41" style="edgeStyle=none;html=1;" edge="1" parent="1" source="42" target="45">
                    <mxGeometry relative="1" as="geometry"/>
                </mxCell>
                <mxCell id="42" value="convert string to integer" style="rounded=0;whiteSpace=wrap;html=1;" vertex="1" parent="1">
                    <mxGeometry x="374" y="330" width="120" height="60" as="geometry"/>
                </mxCell>
                <mxCell id="43" style="edgeStyle=none;html=1;" edge="1" parent="1" source="45">
                    <mxGeometry relative="1" as="geometry">
                        <mxPoint x="540" y="470.0000000000002" as="targetPoint"/>
                    </mxGeometry>
                </mxCell>
                <mxCell id="44" style="edgeStyle=none;html=1;entryX=0.5;entryY=0;entryDx=0;entryDy=0;" edge="1" parent="1" source="45">
                    <mxGeometry relative="1" as="geometry">
                        <mxPoint x="432" y="560" as="targetPoint"/>
                    </mxGeometry>
                </mxCell>
                <mxCell id="45" value="If user_&lt;br&gt;number &amp;lt; 0" style="rhombus;whiteSpace=wrap;html=1;" vertex="1" parent="1">
                    <mxGeometry x="380" y="420" width="104" height="100" as="geometry"/>
                </mxCell>
                <mxCell id="46" style="edgeStyle=elbowEdgeStyle;rounded=0;html=1;entryX=1;entryY=0.5;entryDx=0;entryDy=0;entryPerimeter=0;" edge="1" parent="1" source="47" target="29">
                    <mxGeometry relative="1" as="geometry">
                        <mxPoint x="560" y="920.6666259765625" as="targetPoint"/>
                        <Array as="points">
                            <mxPoint x="580" y="710"/>
                        </Array>
                    </mxGeometry>
                </mxCell>
                <mxCell id="47" value="number must be positive" style="shape=parallelogram;perimeter=parallelogramPerimeter;whiteSpace=wrap;html=1;fixedSize=1;" vertex="1" parent="1">
                    <mxGeometry x="530" y="440" width="120" height="60" as="geometry"/>
                </mxCell>
                <mxCell id="48" value="yes" style="text;html=1;align=center;verticalAlign=middle;resizable=0;points=[];autosize=1;strokeColor=none;fillColor=none;" vertex="1" parent="1">
                    <mxGeometry x="494" y="440" width="30" height="20" as="geometry"/>
                </mxCell>
                <mxCell id="49" value="no" style="text;html=1;align=center;verticalAlign=middle;resizable=0;points=[];autosize=1;strokeColor=none;fillColor=none;" vertex="1" parent="1">
                    <mxGeometry x="444" y="530" width="30" height="20" as="geometry"/>
                </mxCell>
                <mxCell id="50" style="edgeStyle=none;html=1;" edge="1" parent="1" source="51">
                    <mxGeometry relative="1" as="geometry">
                        <mxPoint x="432" y="740" as="targetPoint"/>
                    </mxGeometry>
                </mxCell>
                <mxCell id="51" value="For counter &lt;br&gt;= 0:&lt;br&gt;counter &amp;lt;3&lt;br&gt;counter++" style="rhombus;whiteSpace=wrap;html=1;" vertex="1" parent="1">
                    <mxGeometry x="372" y="560" width="120" height="120" as="geometry"/>
                </mxCell>
                <mxCell id="52" style="edgeStyle=elbowEdgeStyle;html=1;entryX=0;entryY=0.5;entryDx=0;entryDy=0;rounded=0;" edge="1" parent="1" source="53" target="51">
                    <mxGeometry relative="1" as="geometry">
                        <Array as="points">
                            <mxPoint x="330" y="680"/>
                        </Array>
                    </mxGeometry>
                </mxCell>
                <mxCell id="53" value="counter&lt;span style=&quot;font-size: 10px&quot;&gt;&lt;sup&gt;2&lt;/sup&gt;&lt;/span&gt;&amp;nbsp;= sum" style="rhombus;whiteSpace=wrap;html=1;" vertex="1" parent="1">
                    <mxGeometry x="372" y="740" width="120" height="120" as="geometry"/>
                </mxCell>
                <mxCell id="54" value="no" style="text;html=1;align=center;verticalAlign=middle;resizable=0;points=[];autosize=1;strokeColor=none;fillColor=none;" vertex="1" parent="1">
                    <mxGeometry x="494" y="590" width="30" height="20" as="geometry"/>
                </mxCell>
                <mxCell id="55" value="yes" style="text;html=1;align=center;verticalAlign=middle;resizable=0;points=[];autosize=1;strokeColor=none;fillColor=none;" vertex="1" parent="1">
                    <mxGeometry x="444" y="680" width="30" height="20" as="geometry"/>
                </mxCell>
                <mxCell id="56" value="" style="endArrow=none;html=1;rounded=0;entryX=1;entryY=0.5;entryDx=0;entryDy=0;" edge="1" parent="1" target="51">
                    <mxGeometry width="50" height="50" relative="1" as="geometry">
                        <mxPoint x="580" y="620" as="sourcePoint"/>
                        <mxPoint x="480" y="650" as="targetPoint"/>
                    </mxGeometry>
                </mxCell>
            </root>
        </mxGraphModel>
    </diagram>
</mxfile>